<?xml version="1.0" encoding="UTF-8" standalone="no"?>
<!DOCTYPE svg PUBLIC "-//W3C//DTD SVG 1.1//EN"
 "http://www.w3.org/Graphics/SVG/1.1/DTD/svg11.dtd">
<!-- Generated by graphviz version 2.38.0 (20140413.2041)
 -->
<!-- Title: SC_RNA_AGGREGATOR Pages: 1 -->
<svg width="1422pt" height="1019pt"
 viewBox="0.00 0.00 1422.28 1019.00" xmlns="http://www.w3.org/2000/svg" xmlns:xlink="http://www.w3.org/1999/xlink">
<g id="SC_RNA_AGGREGATOR" class="graph" transform="scale(1 1) rotate(0) translate(4 1015)">
<title>SC_RNA_AGGREGATOR</title>
<polygon fill="white" stroke="none" points="-4,4 -4,-1015 1418.28,-1015 1418.28,4 -4,4"/>
<g id="SC_RNA_AGGREGATOR.SC_RNA_ANALYZER" class="cluster"><title>clusterSC_RNA_AGGREGATOR.SC_RNA_ANALYZER</title>
<polygon fill="none" stroke="black" points="253.839,-136 253.839,-1003 1207.84,-1003 1207.84,-136 253.839,-136"/>
<text text-anchor="middle" x="730.839" y="-987.8" font-family="Times,serif" font-size="14.00">SC_RNA_ANALYZER</text>
</g>
<!-- SC_RNA_AGGREGATOR.AGGREGATOR_PREFLIGHT -->
<g id="SC_RNA_AGGREGATOR.AGGREGATOR_PREFLIGHT" class="node"><title>SC_RNA_AGGREGATOR.AGGREGATOR_PREFLIGHT</title>
<ellipse fill="none" stroke="#18a520" stroke-dasharray="5,2" cx="122.839" cy="-954" rx="122.678" ry="18"/>
<text text-anchor="middle" x="122.839" y="-950.3" font-family="Times,serif" font-size="14.00">AGGREGATOR_PREFLIGHT</text>
</g>
<!-- SC_RNA_AGGREGATOR.SETUP_SAMPLES -->
<g id="SC_RNA_AGGREGATOR.SETUP_SAMPLES" class="node"><title>SC_RNA_AGGREGATOR.SETUP_SAMPLES</title>
<ellipse fill="none" stroke="#6318a5" cx="610.839" cy="-954" rx="81.7856" ry="18"/>
<text text-anchor="middle" x="610.839" y="-950.3" font-family="Times,serif" font-size="14.00">SETUP_SAMPLES</text>
</g>
<!-- SC_RNA_AGGREGATOR.MERGE_MOLECULES -->
<g id="SC_RNA_AGGREGATOR.MERGE_MOLECULES" class="node"><title>SC_RNA_AGGREGATOR.MERGE_MOLECULES</title>
<ellipse fill="none" stroke="#a51918" cx="1314.84" cy="-954" rx="99.3824" ry="18"/>
<text text-anchor="middle" x="1314.84" y="-950.3" font-family="Times,serif" font-size="14.00">MERGE_MOLECULES</text>
</g>
<!-- SC_RNA_AGGREGATOR.SETUP_SAMPLES&#45;&gt;SC_RNA_AGGREGATOR.MERGE_MOLECULES -->
<g id="SC_RNA_AGGREGATOR_edge1" class="edge"><title>SC_RNA_AGGREGATOR.SETUP_SAMPLES&#45;&gt;SC_RNA_AGGREGATOR.MERGE_MOLECULES</title>
<path fill="none" stroke="#a51918" d="M692.995,-954C863.679,-954 1034.36,-954 1205.05,-954"/>
<polygon fill="#a51918" stroke="#a51918" points="1205.25,-957.5 1215.25,-954 1205.25,-950.5 1205.25,-957.5"/>
</g>
<!-- SC_RNA_AGGREGATOR.NORMALIZE_DEPTH -->
<g id="SC_RNA_AGGREGATOR.NORMALIZE_DEPTH" class="node"><title>SC_RNA_AGGREGATOR.NORMALIZE_DEPTH</title>
<ellipse fill="none" stroke="#a59518" cx="1311.84" cy="-882" rx="95.5831" ry="18"/>
<text text-anchor="middle" x="1311.84" y="-878.3" font-family="Times,serif" font-size="14.00">NORMALIZE_DEPTH</text>
</g>
<!-- SC_RNA_AGGREGATOR.SETUP_SAMPLES&#45;&gt;SC_RNA_AGGREGATOR.NORMALIZE_DEPTH -->
<g id="SC_RNA_AGGREGATOR_edge3" class="edge"><title>SC_RNA_AGGREGATOR.SETUP_SAMPLES&#45;&gt;SC_RNA_AGGREGATOR.NORMALIZE_DEPTH</title>
<path fill="none" stroke="#a59518" d="M688.376,-948.164C803.071,-940.557 1024.58,-924.134 1211.84,-900 1219.51,-899.011 1227.5,-897.86 1235.47,-896.633"/>
<polygon fill="#a59518" stroke="#a59518" points="1236.19,-900.062 1245.52,-895.044 1235.1,-893.148 1236.19,-900.062"/>
</g>
<!-- SC_RNA_AGGREGATOR.WRITE_MATRICES -->
<g id="SC_RNA_AGGREGATOR.WRITE_MATRICES" class="node"><title>SC_RNA_AGGREGATOR.WRITE_MATRICES</title>
<ellipse fill="none" stroke="#a59218" cx="927.839" cy="-882" rx="88.2844" ry="18"/>
<text text-anchor="middle" x="927.839" y="-878.3" font-family="Times,serif" font-size="14.00">WRITE_MATRICES</text>
</g>
<!-- SC_RNA_AGGREGATOR.SETUP_SAMPLES&#45;&gt;SC_RNA_AGGREGATOR.WRITE_MATRICES -->
<g id="SC_RNA_AGGREGATOR_edge6" class="edge"><title>SC_RNA_AGGREGATOR.SETUP_SAMPLES&#45;&gt;SC_RNA_AGGREGATOR.WRITE_MATRICES</title>
<path fill="none" stroke="#a59218" d="M666.419,-940.727C720.469,-928.792 802.65,-910.644 860.41,-897.89"/>
<polygon fill="#a59218" stroke="#a59218" points="861.169,-901.307 870.179,-895.733 859.659,-894.471 861.169,-901.307"/>
</g>
<!-- SC_RNA_AGGREGATOR.SC_RNA_ANALYZER.CHOOSE_DIMENSION_REDUCTION -->
<g id="SC_RNA_AGGREGATOR.SC_RNA_ANALYZER.CHOOSE_DIMENSION_REDUCTION" class="node"><title>SC_RNA_AGGREGATOR.SC_RNA_ANALYZER.CHOOSE_DIMENSION_REDUCTION</title>
<ellipse fill="none" stroke="#a55d18" cx="436.839" cy="-882" rx="155.173" ry="18"/>
<text text-anchor="middle" x="436.839" y="-878.3" font-family="Times,serif" font-size="14.00">CHOOSE_DIMENSION_REDUCTION</text>
</g>
<!-- SC_RNA_AGGREGATOR.SETUP_SAMPLES&#45;&gt;SC_RNA_AGGREGATOR.SC_RNA_ANALYZER.CHOOSE_DIMENSION_REDUCTION -->
<g id="SC_RNA_AGGREGATOR_edge13" class="edge"><title>SC_RNA_AGGREGATOR.SETUP_SAMPLES&#45;&gt;SC_RNA_AGGREGATOR.SC_RNA_ANALYZER.CHOOSE_DIMENSION_REDUCTION</title>
<path fill="none" stroke="#a55d18" d="M573.084,-937.811C547.87,-927.668 514.429,-914.214 486.988,-903.175"/>
<polygon fill="#a55d18" stroke="#a55d18" points="488.139,-899.865 477.555,-899.38 485.526,-906.36 488.139,-899.865"/>
</g>
<!-- SC_RNA_AGGREGATOR.SC_RNA_ANALYZER.RUN_FBPCA -->
<g id="SC_RNA_AGGREGATOR.SC_RNA_ANALYZER.RUN_FBPCA" class="node"><title>SC_RNA_AGGREGATOR.SC_RNA_ANALYZER.RUN_FBPCA</title>
<ellipse fill="none" stroke="#a57c18" cx="643.839" cy="-666" rx="61.99" ry="18"/>
<text text-anchor="middle" x="643.839" y="-662.3" font-family="Times,serif" font-size="14.00">RUN_FBPCA</text>
</g>
<!-- SC_RNA_AGGREGATOR.SETUP_SAMPLES&#45;&gt;SC_RNA_AGGREGATOR.SC_RNA_ANALYZER.RUN_FBPCA -->
<g id="SC_RNA_AGGREGATOR_edge18" class="edge"><title>SC_RNA_AGGREGATOR.SETUP_SAMPLES&#45;&gt;SC_RNA_AGGREGATOR.SC_RNA_ANALYZER.RUN_FBPCA</title>
<path fill="none" stroke="#a57c18" d="M612.604,-935.827C613.633,-925.459 614.908,-911.979 615.839,-900 622.048,-820.092 612.04,-798.771 626.839,-720 628.488,-711.223 631.162,-701.875 633.906,-693.513"/>
<polygon fill="#a57c18" stroke="#a57c18" points="637.268,-694.501 637.224,-683.906 630.651,-692.216 637.268,-694.501"/>
</g>
<!-- SC_RNA_AGGREGATOR.SC_RNA_ANALYZER.CORRECT_CHEMISTRY_BATCH -->
<g id="SC_RNA_AGGREGATOR.SC_RNA_ANALYZER.CORRECT_CHEMISTRY_BATCH" class="node"><title>SC_RNA_AGGREGATOR.SC_RNA_ANALYZER.CORRECT_CHEMISTRY_BATCH</title>
<ellipse fill="none" stroke="#a51856" cx="582.839" cy="-594" rx="141.075" ry="18"/>
<text text-anchor="middle" x="582.839" y="-590.3" font-family="Times,serif" font-size="14.00">CORRECT_CHEMISTRY_BATCH</text>
</g>
<!-- SC_RNA_AGGREGATOR.SETUP_SAMPLES&#45;&gt;SC_RNA_AGGREGATOR.SC_RNA_ANALYZER.CORRECT_CHEMISTRY_BATCH -->
<g id="SC_RNA_AGGREGATOR_edge21" class="edge"><title>SC_RNA_AGGREGATOR.SETUP_SAMPLES&#45;&gt;SC_RNA_AGGREGATOR.SC_RNA_ANALYZER.CORRECT_CHEMISTRY_BATCH</title>
<path fill="none" stroke="#a51856" d="M608.985,-935.931C607.024,-918.009 603.808,-889.013 600.839,-864 597.039,-831.976 596.634,-823.891 591.839,-792 584.592,-743.805 577.077,-732.553 572.839,-684 571.448,-668.061 571.349,-663.93 572.839,-648 573.636,-639.478 575.139,-630.285 576.742,-621.986"/>
<polygon fill="#a51856" stroke="#a51856" points="580.195,-622.571 578.78,-612.071 573.338,-621.161 580.195,-622.571"/>
</g>
<!-- SC_RNA_AGGREGATOR.SC_RNA_ANALYZER.SUMMARIZE_ANALYSIS -->
<g id="SC_RNA_AGGREGATOR.SC_RNA_ANALYZER.SUMMARIZE_ANALYSIS" class="node"><title>SC_RNA_AGGREGATOR.SC_RNA_ANALYZER.SUMMARIZE_ANALYSIS</title>
<ellipse fill="none" stroke="#58a518" cx="815.839" cy="-162" rx="112.38" ry="18"/>
<text text-anchor="middle" x="815.839" y="-158.3" font-family="Times,serif" font-size="14.00">SUMMARIZE_ANALYSIS</text>
</g>
<!-- SC_RNA_AGGREGATOR.SETUP_SAMPLES&#45;&gt;SC_RNA_AGGREGATOR.SC_RNA_ANALYZER.SUMMARIZE_ANALYSIS -->
<g id="SC_RNA_AGGREGATOR_edge56" class="edge"><title>SC_RNA_AGGREGATOR.SETUP_SAMPLES&#45;&gt;SC_RNA_AGGREGATOR.SC_RNA_ANALYZER.SUMMARIZE_ANALYSIS</title>
<path fill="none" stroke="#58a518" d="M529.521,-951.244C440.922,-947.5 307.187,-935.881 272.839,-900 245.314,-871.246 262.839,-850.804 262.839,-811 262.839,-811 262.839,-811 262.839,-305 262.839,-256.793 283.366,-240.575 324.839,-216 385.254,-180.2 569.4,-168.515 694.188,-164.742"/>
<polygon fill="#58a518" stroke="#58a518" points="694.297,-168.24 704.192,-164.452 694.095,-161.243 694.297,-168.24"/>
</g>
<!-- SC_RNA_AGGREGATOR.SUMMARIZE_AGGREGATED_REPORTS -->
<g id="SC_RNA_AGGREGATOR.SUMMARIZE_AGGREGATED_REPORTS" class="node"><title>SC_RNA_AGGREGATOR.SUMMARIZE_AGGREGATED_REPORTS</title>
<ellipse fill="none" stroke="#18a52a" cx="481.839" cy="-90" rx="171.67" ry="18"/>
<text text-anchor="middle" x="481.839" y="-86.3" font-family="Times,serif" font-size="14.00">SUMMARIZE_AGGREGATED_REPORTS</text>
</g>
<!-- SC_RNA_AGGREGATOR.SETUP_SAMPLES&#45;&gt;SC_RNA_AGGREGATOR.SUMMARIZE_AGGREGATED_REPORTS -->
<g id="SC_RNA_AGGREGATOR_edge58" class="edge"><title>SC_RNA_AGGREGATOR.SETUP_SAMPLES&#45;&gt;SC_RNA_AGGREGATOR.SUMMARIZE_AGGREGATED_REPORTS</title>
<path fill="none" stroke="#18a52a" d="M532.219,-948.81C441.389,-942.691 298.67,-928.755 253.839,-900 214.098,-874.51 195.839,-858.214 195.839,-811 195.839,-811 195.839,-811 195.839,-233 195.839,-183.22 211.331,-164.933 251.839,-136 270.154,-122.919 315.594,-112.74 361.294,-105.397"/>
<polygon fill="#18a52a" stroke="#18a52a" points="362.007,-108.828 371.347,-103.827 360.927,-101.912 362.007,-108.828"/>
</g>
<!-- Outputs -->
<g id="SC_RNA_AGGREGATOR_node23" class="node"><title>Outputs</title>
<ellipse fill="none" stroke="black" cx="643.839" cy="-18" rx="38.1938" ry="18"/>
<text text-anchor="middle" x="643.839" y="-14.3" font-family="Times,serif" font-size="14.00">Outputs</text>
</g>
<!-- SC_RNA_AGGREGATOR.SETUP_SAMPLES&#45;&gt;Outputs -->
<g id="SC_RNA_AGGREGATOR_edge61" class="edge"><title>SC_RNA_AGGREGATOR.SETUP_SAMPLES&#45;&gt;Outputs</title>
<path fill="none" stroke="black" stroke-dasharray="5,2" d="M529.816,-950.796C427.556,-946.594 258.834,-934.503 207.839,-900 170.262,-874.575 157.839,-856.37 157.839,-811 157.839,-811 157.839,-811 157.839,-161 157.839,-70.3551 473.265,-33.5995 595.89,-22.7353"/>
<polygon fill="black" stroke="black" points="596.447,-26.2002 606.108,-21.8507 595.843,-19.2263 596.447,-26.2002"/>
</g>
<!-- SC_RNA_AGGREGATOR.MERGE_MOLECULES&#45;&gt;SC_RNA_AGGREGATOR.NORMALIZE_DEPTH -->
<g id="SC_RNA_AGGREGATOR_edge2" class="edge"><title>SC_RNA_AGGREGATOR.MERGE_MOLECULES&#45;&gt;SC_RNA_AGGREGATOR.NORMALIZE_DEPTH</title>
<path fill="none" stroke="#a59518" d="M1314.1,-935.697C1313.77,-927.983 1313.37,-918.712 1313,-910.112"/>
<polygon fill="#a59518" stroke="#a59518" points="1316.5,-909.945 1312.57,-900.104 1309.5,-910.245 1316.5,-909.945"/>
</g>
<!-- SC_RNA_AGGREGATOR.MERGE_MOLECULES&#45;&gt;SC_RNA_AGGREGATOR.WRITE_MATRICES -->
<g id="SC_RNA_AGGREGATOR_edge4" class="edge"><title>SC_RNA_AGGREGATOR.MERGE_MOLECULES&#45;&gt;SC_RNA_AGGREGATOR.WRITE_MATRICES</title>
<path fill="none" stroke="#a59218" d="M1246.99,-940.727C1178.29,-928.301 1072.36,-909.141 1001.61,-896.344"/>
<polygon fill="#a59218" stroke="#a59218" points="1001.9,-892.839 991.437,-894.503 1000.65,-899.728 1001.9,-892.839"/>
</g>
<!-- SC_RNA_AGGREGATOR.NORMALIZE_DEPTH&#45;&gt;SC_RNA_AGGREGATOR.WRITE_MATRICES -->
<g id="SC_RNA_AGGREGATOR_edge5" class="edge"><title>SC_RNA_AGGREGATOR.NORMALIZE_DEPTH&#45;&gt;SC_RNA_AGGREGATOR.WRITE_MATRICES</title>
<path fill="none" stroke="#a59218" d="M1216.03,-882C1152.85,-882 1089.66,-882 1026.48,-882"/>
<polygon fill="#a59218" stroke="#a59218" points="1026.34,-878.5 1016.34,-882 1026.34,-885.5 1026.34,-878.5"/>
</g>
<!-- SC_RNA_AGGREGATOR.SC_RNA_ANALYZER.ANALYZER_PREFLIGHT -->
<g id="SC_RNA_AGGREGATOR.SC_RNA_ANALYZER.ANALYZER_PREFLIGHT" class="node"><title>SC_RNA_AGGREGATOR.SC_RNA_ANALYZER.ANALYZER_PREFLIGHT</title>
<ellipse fill="none" stroke="#1a18a5" cx="472.839" cy="-810" rx="109.681" ry="18"/>
<text text-anchor="middle" x="472.839" y="-806.3" font-family="Times,serif" font-size="14.00">ANALYZER_PREFLIGHT</text>
</g>
<!-- SC_RNA_AGGREGATOR.WRITE_MATRICES&#45;&gt;SC_RNA_AGGREGATOR.SC_RNA_ANALYZER.ANALYZER_PREFLIGHT -->
<g id="SC_RNA_AGGREGATOR_edge7" class="edge"><title>SC_RNA_AGGREGATOR.WRITE_MATRICES&#45;&gt;SC_RNA_AGGREGATOR.SC_RNA_ANALYZER.ANALYZER_PREFLIGHT</title>
<path fill="none" stroke="#1a18a5" d="M859.721,-870.52C779.873,-858.236 647.382,-837.853 560.081,-824.422"/>
<polygon fill="#1a18a5" stroke="#1a18a5" points="560.61,-820.962 550.194,-822.901 559.545,-827.881 560.61,-820.962"/>
</g>
<!-- SC_RNA_AGGREGATOR.SC_RNA_ANALYZER.PREPROCESS_MATRIX -->
<g id="SC_RNA_AGGREGATOR.SC_RNA_ANALYZER.PREPROCESS_MATRIX" class="node"><title>SC_RNA_AGGREGATOR.SC_RNA_ANALYZER.PREPROCESS_MATRIX</title>
<ellipse fill="none" stroke="#a51845" cx="740.839" cy="-738" rx="104.782" ry="18"/>
<text text-anchor="middle" x="740.839" y="-734.3" font-family="Times,serif" font-size="14.00">PREPROCESS_MATRIX</text>
</g>
<!-- SC_RNA_AGGREGATOR.WRITE_MATRICES&#45;&gt;SC_RNA_AGGREGATOR.SC_RNA_ANALYZER.PREPROCESS_MATRIX -->
<g id="SC_RNA_AGGREGATOR_edge9" class="edge"><title>SC_RNA_AGGREGATOR.WRITE_MATRICES&#45;&gt;SC_RNA_AGGREGATOR.SC_RNA_ANALYZER.PREPROCESS_MATRIX</title>
<path fill="none" stroke="#a51845" d="M906.022,-864.433C872.612,-839.063 808.685,-790.52 770.905,-761.831"/>
<polygon fill="#a51845" stroke="#a51845" points="772.887,-758.941 762.806,-755.681 768.654,-764.516 772.887,-758.941"/>
</g>
<!-- SC_RNA_AGGREGATOR.SC_RNA_ANALYZER.RUN_MULTIGENOME_ANALYSIS -->
<g id="SC_RNA_AGGREGATOR.SC_RNA_ANALYZER.RUN_MULTIGENOME_ANALYSIS" class="node"><title>SC_RNA_AGGREGATOR.SC_RNA_ANALYZER.RUN_MULTIGENOME_ANALYSIS</title>
<ellipse fill="none" stroke="#6da518" cx="1051.84" cy="-666" rx="147.574" ry="18"/>
<text text-anchor="middle" x="1051.84" y="-662.3" font-family="Times,serif" font-size="14.00">RUN_MULTIGENOME_ANALYSIS</text>
</g>
<!-- SC_RNA_AGGREGATOR.WRITE_MATRICES&#45;&gt;SC_RNA_AGGREGATOR.SC_RNA_ANALYZER.RUN_MULTIGENOME_ANALYSIS -->
<g id="SC_RNA_AGGREGATOR_edge12" class="edge"><title>SC_RNA_AGGREGATOR.WRITE_MATRICES&#45;&gt;SC_RNA_AGGREGATOR.SC_RNA_ANALYZER.RUN_MULTIGENOME_ANALYSIS</title>
<path fill="none" stroke="#6da518" d="M937.777,-863.849C959.453,-826.44 1011.09,-737.322 1036.79,-692.98"/>
<polygon fill="#6da518" stroke="#6da518" points="1039.87,-694.64 1041.85,-684.232 1033.81,-691.13 1039.87,-694.64"/>
</g>
<!-- SC_RNA_AGGREGATOR.WRITE_MATRICES&#45;&gt;SC_RNA_AGGREGATOR.SUMMARIZE_AGGREGATED_REPORTS -->
<g id="SC_RNA_AGGREGATOR_edge59" class="edge"><title>SC_RNA_AGGREGATOR.WRITE_MATRICES&#45;&gt;SC_RNA_AGGREGATOR.SUMMARIZE_AGGREGATED_REPORTS</title>
<path fill="none" stroke="#18a52a" d="M844.54,-875.803C696.416,-866.195 398.505,-845.073 353.839,-828 291.815,-804.291 233.839,-805.401 233.839,-739 233.839,-739 233.839,-739 233.839,-233 233.839,-161.713 311.963,-125.715 380.515,-107.85"/>
<polygon fill="#18a52a" stroke="#18a52a" points="381.696,-111.163 390.55,-105.344 379.999,-104.371 381.696,-111.163"/>
</g>
<!-- SC_RNA_AGGREGATOR.WRITE_MATRICES&#45;&gt;Outputs -->
<g id="SC_RNA_AGGREGATOR_edge63" class="edge"><title>SC_RNA_AGGREGATOR.WRITE_MATRICES&#45;&gt;Outputs</title>
<path fill="none" stroke="black" stroke-dasharray="5,2" d="M1011.8,-876.293C1100.56,-866.246 1227.84,-835.087 1227.84,-739 1227.84,-739 1227.84,-739 1227.84,-161 1227.84,-51.0608 832.134,-25.8987 692.174,-20.4373"/>
<polygon fill="black" stroke="black" points="692.281,-16.939 682.157,-20.0633 692.019,-23.9341 692.281,-16.939"/>
</g>
<!-- SC_RNA_AGGREGATOR.SC_RNA_ANALYZER.ANALYZER_PREFLIGHT&#45;&gt;SC_RNA_AGGREGATOR.SC_RNA_ANALYZER.PREPROCESS_MATRIX -->
<g id="SC_RNA_AGGREGATOR_edge8" class="edge"><title>SC_RNA_AGGREGATOR.SC_RNA_ANALYZER.ANALYZER_PREFLIGHT&#45;&gt;SC_RNA_AGGREGATOR.SC_RNA_ANALYZER.PREPROCESS_MATRIX</title>
<path fill="none" stroke="#a51845" d="M528.694,-794.411C571.623,-783.198 630.998,-767.69 676.018,-755.931"/>
<polygon fill="#a51845" stroke="#a51845" points="677.182,-759.244 685.973,-753.331 675.413,-752.471 677.182,-759.244"/>
</g>
<!-- SC_RNA_AGGREGATOR.SC_RNA_ANALYZER.ANALYZER_PREFLIGHT&#45;&gt;SC_RNA_AGGREGATOR.SC_RNA_ANALYZER.RUN_MULTIGENOME_ANALYSIS -->
<g id="SC_RNA_AGGREGATOR_edge10" class="edge"><title>SC_RNA_AGGREGATOR.SC_RNA_ANALYZER.ANALYZER_PREFLIGHT&#45;&gt;SC_RNA_AGGREGATOR.SC_RNA_ANALYZER.RUN_MULTIGENOME_ANALYSIS</title>
<path fill="none" stroke="#6da518" d="M580.647,-806.352C666.299,-801.64 788.166,-789.062 889.839,-756 937.817,-740.398 987.966,-710.392 1019.52,-689.559"/>
<polygon fill="#6da518" stroke="#6da518" points="1021.55,-692.415 1027.91,-683.945 1017.66,-686.597 1021.55,-692.415"/>
</g>
<!-- SC_RNA_AGGREGATOR.SC_RNA_ANALYZER.RUN_PCA -->
<g id="SC_RNA_AGGREGATOR.SC_RNA_ANALYZER.RUN_PCA" class="node"><title>SC_RNA_AGGREGATOR.SC_RNA_ANALYZER.RUN_PCA</title>
<ellipse fill="none" stroke="#4418a5" cx="472.839" cy="-666" rx="50.8918" ry="18"/>
<text text-anchor="middle" x="472.839" y="-662.3" font-family="Times,serif" font-size="14.00">RUN_PCA</text>
</g>
<!-- SC_RNA_AGGREGATOR.SC_RNA_ANALYZER.ANALYZER_PREFLIGHT&#45;&gt;SC_RNA_AGGREGATOR.SC_RNA_ANALYZER.RUN_PCA -->
<g id="SC_RNA_AGGREGATOR_edge14" class="edge"><title>SC_RNA_AGGREGATOR.SC_RNA_ANALYZER.ANALYZER_PREFLIGHT&#45;&gt;SC_RNA_AGGREGATOR.SC_RNA_ANALYZER.RUN_PCA</title>
<path fill="none" stroke="#4418a5" d="M472.839,-791.871C472.839,-767.67 472.839,-723.211 472.839,-694.393"/>
<polygon fill="#4418a5" stroke="#4418a5" points="476.339,-694.189 472.839,-684.189 469.339,-694.189 476.339,-694.189"/>
</g>
<!-- SC_RNA_AGGREGATOR.SC_RNA_ANALYZER.ANALYZER_PREFLIGHT&#45;&gt;SC_RNA_AGGREGATOR.SC_RNA_ANALYZER.RUN_FBPCA -->
<g id="SC_RNA_AGGREGATOR_edge16" class="edge"><title>SC_RNA_AGGREGATOR.SC_RNA_ANALYZER.ANALYZER_PREFLIGHT&#45;&gt;SC_RNA_AGGREGATOR.SC_RNA_ANALYZER.RUN_FBPCA</title>
<path fill="none" stroke="#a57c18" d="M498.105,-792.375C512.945,-782.312 531.864,-768.955 547.839,-756 573.593,-735.115 601.173,-709.127 620.133,-690.637"/>
<polygon fill="#a57c18" stroke="#a57c18" points="622.766,-692.957 627.451,-683.455 617.863,-687.961 622.766,-692.957"/>
</g>
<!-- SC_RNA_AGGREGATOR.SC_RNA_ANALYZER.ANALYZER_PREFLIGHT&#45;&gt;SC_RNA_AGGREGATOR.SC_RNA_ANALYZER.CORRECT_CHEMISTRY_BATCH -->
<g id="SC_RNA_AGGREGATOR_edge19" class="edge"><title>SC_RNA_AGGREGATOR.SC_RNA_ANALYZER.ANALYZER_PREFLIGHT&#45;&gt;SC_RNA_AGGREGATOR.SC_RNA_ANALYZER.CORRECT_CHEMISTRY_BATCH</title>
<path fill="none" stroke="#a51856" d="M481.655,-791.849C500.844,-754.519 546.501,-665.695 569.341,-621.259"/>
<polygon fill="#a51856" stroke="#a51856" points="572.522,-622.726 573.981,-612.232 566.297,-619.526 572.522,-622.726"/>
</g>
<!-- SC_RNA_AGGREGATOR.SC_RNA_ANALYZER.CHOOSE_DIMENSION_REDUCTION_OUTPUT -->
<g id="SC_RNA_AGGREGATOR.SC_RNA_ANALYZER.CHOOSE_DIMENSION_REDUCTION_OUTPUT" class="node"><title>SC_RNA_AGGREGATOR.SC_RNA_ANALYZER.CHOOSE_DIMENSION_REDUCTION_OUTPUT</title>
<ellipse fill="none" stroke="#18a583" cx="635.839" cy="-522" rx="194.166" ry="18"/>
<text text-anchor="middle" x="635.839" y="-518.3" font-family="Times,serif" font-size="14.00">CHOOSE_DIMENSION_REDUCTION_OUTPUT</text>
</g>
<!-- SC_RNA_AGGREGATOR.SC_RNA_ANALYZER.ANALYZER_PREFLIGHT&#45;&gt;SC_RNA_AGGREGATOR.SC_RNA_ANALYZER.CHOOSE_DIMENSION_REDUCTION_OUTPUT -->
<g id="SC_RNA_AGGREGATOR_edge22" class="edge"><title>SC_RNA_AGGREGATOR.SC_RNA_ANALYZER.ANALYZER_PREFLIGHT&#45;&gt;SC_RNA_AGGREGATOR.SC_RNA_ANALYZER.CHOOSE_DIMENSION_REDUCTION_OUTPUT</title>
<path fill="none" stroke="#18a583" d="M460.502,-791.832C431.662,-749.451 366.401,-638.753 422.839,-576 437.172,-560.064 480.037,-547.899 523.591,-539.268"/>
<polygon fill="#18a583" stroke="#18a583" points="524.313,-542.694 533.473,-537.371 522.993,-535.819 524.313,-542.694"/>
</g>
<!-- SC_RNA_AGGREGATOR.SC_RNA_ANALYZER.RUN_KMEANS -->
<g id="SC_RNA_AGGREGATOR.SC_RNA_ANALYZER.RUN_KMEANS" class="node"><title>SC_RNA_AGGREGATOR.SC_RNA_ANALYZER.RUN_KMEANS</title>
<ellipse fill="none" stroke="#a53f18" cx="432.839" cy="-450" rx="71.4873" ry="18"/>
<text text-anchor="middle" x="432.839" y="-446.3" font-family="Times,serif" font-size="14.00">RUN_KMEANS</text>
</g>
<!-- SC_RNA_AGGREGATOR.SC_RNA_ANALYZER.ANALYZER_PREFLIGHT&#45;&gt;SC_RNA_AGGREGATOR.SC_RNA_ANALYZER.RUN_KMEANS -->
<g id="SC_RNA_AGGREGATOR_edge25" class="edge"><title>SC_RNA_AGGREGATOR.SC_RNA_ANALYZER.ANALYZER_PREFLIGHT&#45;&gt;SC_RNA_AGGREGATOR.SC_RNA_ANALYZER.RUN_KMEANS</title>
<path fill="none" stroke="#a53f18" d="M424.154,-793.747C406.347,-785.544 388.072,-773.426 377.839,-756 321.127,-659.42 334.022,-607.073 377.839,-504 382.784,-492.368 391.67,-482.051 400.878,-473.682"/>
<polygon fill="#a53f18" stroke="#a53f18" points="403.247,-476.262 408.609,-467.124 398.719,-470.924 403.247,-476.262"/>
</g>
<!-- SC_RNA_AGGREGATOR.SC_RNA_ANALYZER.RUN_GRAPH_CLUSTERING -->
<g id="SC_RNA_AGGREGATOR.SC_RNA_ANALYZER.RUN_GRAPH_CLUSTERING" class="node"><title>SC_RNA_AGGREGATOR.SC_RNA_ANALYZER.RUN_GRAPH_CLUSTERING</title>
<ellipse fill="none" stroke="#18a5a4" cx="644.839" cy="-450" rx="122.379" ry="18"/>
<text text-anchor="middle" x="644.839" y="-446.3" font-family="Times,serif" font-size="14.00">RUN_GRAPH_CLUSTERING</text>
</g>
<!-- SC_RNA_AGGREGATOR.SC_RNA_ANALYZER.ANALYZER_PREFLIGHT&#45;&gt;SC_RNA_AGGREGATOR.SC_RNA_ANALYZER.RUN_GRAPH_CLUSTERING -->
<g id="SC_RNA_AGGREGATOR_edge28" class="edge"><title>SC_RNA_AGGREGATOR.SC_RNA_ANALYZER.ANALYZER_PREFLIGHT&#45;&gt;SC_RNA_AGGREGATOR.SC_RNA_ANALYZER.RUN_GRAPH_CLUSTERING</title>
<path fill="none" stroke="#18a5a4" d="M451.34,-792.161C440.167,-782.532 426.978,-769.67 417.839,-756 394.216,-720.665 382.839,-709.504 382.839,-667 382.839,-667 382.839,-667 382.839,-593 382.839,-549.813 388.685,-531.675 421.839,-504 441.714,-487.41 498.992,-473.993 550.519,-464.809"/>
<polygon fill="#18a5a4" stroke="#18a5a4" points="551.148,-468.252 560.398,-463.086 549.946,-461.356 551.148,-468.252"/>
</g>
<!-- SC_RNA_AGGREGATOR.SC_RNA_ANALYZER.MERGE_CLUSTERS -->
<g id="SC_RNA_AGGREGATOR.SC_RNA_ANALYZER.MERGE_CLUSTERS" class="node"><title>SC_RNA_AGGREGATOR.SC_RNA_ANALYZER.MERGE_CLUSTERS</title>
<ellipse fill="none" stroke="#8ba518" cx="644.839" cy="-378" rx="90.1842" ry="18"/>
<text text-anchor="middle" x="644.839" y="-374.3" font-family="Times,serif" font-size="14.00">MERGE_CLUSTERS</text>
</g>
<!-- SC_RNA_AGGREGATOR.SC_RNA_ANALYZER.ANALYZER_PREFLIGHT&#45;&gt;SC_RNA_AGGREGATOR.SC_RNA_ANALYZER.MERGE_CLUSTERS -->
<g id="SC_RNA_AGGREGATOR_edge31" class="edge"><title>SC_RNA_AGGREGATOR.SC_RNA_ANALYZER.ANALYZER_PREFLIGHT&#45;&gt;SC_RNA_AGGREGATOR.SC_RNA_ANALYZER.MERGE_CLUSTERS</title>
<path fill="none" stroke="#8ba518" d="M415.725,-794.556C394.209,-786.471 371.242,-774.223 355.839,-756 309.358,-701.009 304.072,-484.973 352.839,-432 378.835,-403.762 473.48,-390.44 548.06,-384.238"/>
<polygon fill="#8ba518" stroke="#8ba518" points="548.751,-387.694 558.441,-383.409 548.194,-380.716 548.751,-387.694"/>
</g>
<!-- SC_RNA_AGGREGATOR.SC_RNA_ANALYZER.COMBINE_CLUSTERING -->
<g id="SC_RNA_AGGREGATOR.SC_RNA_ANALYZER.COMBINE_CLUSTERING" class="node"><title>SC_RNA_AGGREGATOR.SC_RNA_ANALYZER.COMBINE_CLUSTERING</title>
<ellipse fill="none" stroke="#a51884" cx="633.839" cy="-306" rx="110.48" ry="18"/>
<text text-anchor="middle" x="633.839" y="-302.3" font-family="Times,serif" font-size="14.00">COMBINE_CLUSTERING</text>
</g>
<!-- SC_RNA_AGGREGATOR.SC_RNA_ANALYZER.ANALYZER_PREFLIGHT&#45;&gt;SC_RNA_AGGREGATOR.SC_RNA_ANALYZER.COMBINE_CLUSTERING -->
<g id="SC_RNA_AGGREGATOR_edge35" class="edge"><title>SC_RNA_AGGREGATOR.SC_RNA_ANALYZER.ANALYZER_PREFLIGHT&#45;&gt;SC_RNA_AGGREGATOR.SC_RNA_ANALYZER.COMBINE_CLUSTERING</title>
<path fill="none" stroke="#a51884" d="M404.886,-795.85C379.767,-787.982 352.823,-775.545 333.839,-756 304.655,-725.954 302.839,-708.886 302.839,-667 302.839,-667 302.839,-667 302.839,-593 302.839,-520.37 285.477,-488.722 330.839,-432 382.752,-367.087 474.067,-335.555 542.921,-320.444"/>
<polygon fill="#a51884" stroke="#a51884" points="543.85,-323.825 552.909,-318.332 542.401,-316.976 543.85,-323.825"/>
</g>
<!-- SC_RNA_AGGREGATOR.SC_RNA_ANALYZER.RUN_DIFFERENTIAL_EXPRESSION -->
<g id="SC_RNA_AGGREGATOR.SC_RNA_ANALYZER.RUN_DIFFERENTIAL_EXPRESSION" class="node"><title>SC_RNA_AGGREGATOR.SC_RNA_ANALYZER.RUN_DIFFERENTIAL_EXPRESSION</title>
<ellipse fill="none" stroke="#a0a518" cx="633.839" cy="-234" rx="153.273" ry="18"/>
<text text-anchor="middle" x="633.839" y="-230.3" font-family="Times,serif" font-size="14.00">RUN_DIFFERENTIAL_EXPRESSION</text>
</g>
<!-- SC_RNA_AGGREGATOR.SC_RNA_ANALYZER.ANALYZER_PREFLIGHT&#45;&gt;SC_RNA_AGGREGATOR.SC_RNA_ANALYZER.RUN_DIFFERENTIAL_EXPRESSION -->
<g id="SC_RNA_AGGREGATOR_edge38" class="edge"><title>SC_RNA_AGGREGATOR.SC_RNA_ANALYZER.ANALYZER_PREFLIGHT&#45;&gt;SC_RNA_AGGREGATOR.SC_RNA_ANALYZER.RUN_DIFFERENTIAL_EXPRESSION</title>
<path fill="none" stroke="#a0a518" d="M434.93,-793.079C418.867,-784.429 401.446,-772.152 390.839,-756 311.253,-634.809 293.444,-564.263 352.839,-432 394.682,-338.823 506.501,-282.095 575.808,-254.785"/>
<polygon fill="#a0a518" stroke="#a0a518" points="577.224,-257.99 585.294,-251.126 574.705,-251.459 577.224,-257.99"/>
</g>
<!-- SC_RNA_AGGREGATOR.SC_RNA_ANALYZER.RUN_TSNE -->
<g id="SC_RNA_AGGREGATOR.SC_RNA_ANALYZER.RUN_TSNE" class="node"><title>SC_RNA_AGGREGATOR.SC_RNA_ANALYZER.RUN_TSNE</title>
<ellipse fill="none" stroke="#8d18a5" cx="940.839" cy="-450" rx="55.7903" ry="18"/>
<text text-anchor="middle" x="940.839" y="-446.3" font-family="Times,serif" font-size="14.00">RUN_TSNE</text>
</g>
<!-- SC_RNA_AGGREGATOR.SC_RNA_ANALYZER.ANALYZER_PREFLIGHT&#45;&gt;SC_RNA_AGGREGATOR.SC_RNA_ANALYZER.RUN_TSNE -->
<g id="SC_RNA_AGGREGATOR_edge41" class="edge"><title>SC_RNA_AGGREGATOR.SC_RNA_ANALYZER.ANALYZER_PREFLIGHT&#45;&gt;SC_RNA_AGGREGATOR.SC_RNA_ANALYZER.RUN_TSNE</title>
<path fill="none" stroke="#8d18a5" d="M581.695,-807.299C680.3,-803.438 815.923,-791.576 854.839,-756 891.203,-722.757 866.086,-695.311 879.839,-648 894.043,-599.138 903.015,-588.677 917.839,-540 924.076,-519.519 930.093,-496.062 934.407,-478.373"/>
<polygon fill="#8d18a5" stroke="#8d18a5" points="937.922,-478.724 936.86,-468.183 931.117,-477.086 937.922,-478.724"/>
</g>
<!-- SC_RNA_AGGREGATOR.SC_RNA_ANALYZER.RUN_UMAP -->
<g id="SC_RNA_AGGREGATOR.SC_RNA_ANALYZER.RUN_UMAP" class="node"><title>SC_RNA_AGGREGATOR.SC_RNA_ANALYZER.RUN_UMAP</title>
<ellipse fill="none" stroke="#1883a5" cx="1074.84" cy="-450" rx="59.5901" ry="18"/>
<text text-anchor="middle" x="1074.84" y="-446.3" font-family="Times,serif" font-size="14.00">RUN_UMAP</text>
</g>
<!-- SC_RNA_AGGREGATOR.SC_RNA_ANALYZER.ANALYZER_PREFLIGHT&#45;&gt;SC_RNA_AGGREGATOR.SC_RNA_ANALYZER.RUN_UMAP -->
<g id="SC_RNA_AGGREGATOR_edge44" class="edge"><title>SC_RNA_AGGREGATOR.SC_RNA_ANALYZER.ANALYZER_PREFLIGHT&#45;&gt;SC_RNA_AGGREGATOR.SC_RNA_ANALYZER.RUN_UMAP</title>
<path fill="none" stroke="#1883a5" d="M582.399,-808.103C685.455,-804.904 829.871,-793.577 870.839,-756 907.075,-722.763 872.155,-691.626 894.839,-648 933.23,-574.168 1006.37,-506.957 1046.59,-473.426"/>
<polygon fill="#1883a5" stroke="#1883a5" points="1048.91,-476.043 1054.41,-466.984 1044.46,-470.639 1048.91,-476.043"/>
</g>
<!-- SC_RNA_AGGREGATOR.SC_RNA_ANALYZER.ANALYZER_PREFLIGHT&#45;&gt;SC_RNA_AGGREGATOR.SC_RNA_ANALYZER.SUMMARIZE_ANALYSIS -->
<g id="SC_RNA_AGGREGATOR_edge47" class="edge"><title>SC_RNA_AGGREGATOR.SC_RNA_ANALYZER.ANALYZER_PREFLIGHT&#45;&gt;SC_RNA_AGGREGATOR.SC_RNA_ANALYZER.SUMMARIZE_ANALYSIS</title>
<path fill="none" stroke="#58a518" d="M386.544,-798.772C357.414,-791.262 326.964,-778.307 305.839,-756 277.747,-726.336 282.839,-707.855 282.839,-667 282.839,-667 282.839,-667 282.839,-305 282.839,-218.733 546.842,-183.558 703.244,-170.289"/>
<polygon fill="#58a518" stroke="#58a518" points="703.711,-173.763 713.387,-169.446 703.131,-166.787 703.711,-173.763"/>
</g>
<!-- SC_RNA_AGGREGATOR.SC_RNA_ANALYZER.PREPROCESS_MATRIX&#45;&gt;SC_RNA_AGGREGATOR.SC_RNA_ANALYZER.RUN_MULTIGENOME_ANALYSIS -->
<g id="SC_RNA_AGGREGATOR_edge11" class="edge"><title>SC_RNA_AGGREGATOR.SC_RNA_ANALYZER.PREPROCESS_MATRIX&#45;&gt;SC_RNA_AGGREGATOR.SC_RNA_ANALYZER.RUN_MULTIGENOME_ANALYSIS</title>
<path fill="none" stroke="#6da518" d="M801.541,-723.337C851.132,-712.175 921.524,-696.331 975.034,-684.287"/>
<polygon fill="#6da518" stroke="#6da518" points="975.833,-687.695 984.82,-682.085 974.296,-680.866 975.833,-687.695"/>
</g>
<!-- SC_RNA_AGGREGATOR.SC_RNA_ANALYZER.PREPROCESS_MATRIX&#45;&gt;SC_RNA_AGGREGATOR.SC_RNA_ANALYZER.RUN_PCA -->
<g id="SC_RNA_AGGREGATOR_edge15" class="edge"><title>SC_RNA_AGGREGATOR.SC_RNA_ANALYZER.PREPROCESS_MATRIX&#45;&gt;SC_RNA_AGGREGATOR.SC_RNA_ANALYZER.RUN_PCA</title>
<path fill="none" stroke="#4418a5" d="M685.959,-722.666C637.879,-710.107 568.627,-692.019 522.247,-679.905"/>
<polygon fill="#4418a5" stroke="#4418a5" points="522.985,-676.48 512.425,-677.34 521.216,-683.253 522.985,-676.48"/>
</g>
<!-- SC_RNA_AGGREGATOR.SC_RNA_ANALYZER.PREPROCESS_MATRIX&#45;&gt;SC_RNA_AGGREGATOR.SC_RNA_ANALYZER.RUN_FBPCA -->
<g id="SC_RNA_AGGREGATOR_edge17" class="edge"><title>SC_RNA_AGGREGATOR.SC_RNA_ANALYZER.PREPROCESS_MATRIX&#45;&gt;SC_RNA_AGGREGATOR.SC_RNA_ANALYZER.RUN_FBPCA</title>
<path fill="none" stroke="#a57c18" d="M717.851,-720.411C704.861,-711.036 688.457,-699.198 674.395,-689.051"/>
<polygon fill="#a57c18" stroke="#a57c18" points="676.151,-686.002 665.994,-682.988 672.055,-691.678 676.151,-686.002"/>
</g>
<!-- SC_RNA_AGGREGATOR.SC_RNA_ANALYZER.PREPROCESS_MATRIX&#45;&gt;SC_RNA_AGGREGATOR.SC_RNA_ANALYZER.RUN_KMEANS -->
<g id="SC_RNA_AGGREGATOR_edge27" class="edge"><title>SC_RNA_AGGREGATOR.SC_RNA_ANALYZER.PREPROCESS_MATRIX&#45;&gt;SC_RNA_AGGREGATOR.SC_RNA_ANALYZER.RUN_KMEANS</title>
<path fill="none" stroke="#a53f18" d="M742.63,-719.912C746.12,-682.77 751.921,-596.376 732.839,-576 637.728,-474.436 514.4,-643.893 421.839,-540 406.866,-523.194 412.313,-496.985 419.892,-477.353"/>
<polygon fill="#a53f18" stroke="#a53f18" points="423.157,-478.617 423.827,-468.044 416.709,-475.892 423.157,-478.617"/>
</g>
<!-- SC_RNA_AGGREGATOR.SC_RNA_ANALYZER.PREPROCESS_MATRIX&#45;&gt;SC_RNA_AGGREGATOR.SC_RNA_ANALYZER.RUN_GRAPH_CLUSTERING -->
<g id="SC_RNA_AGGREGATOR_edge30" class="edge"><title>SC_RNA_AGGREGATOR.SC_RNA_ANALYZER.PREPROCESS_MATRIX&#45;&gt;SC_RNA_AGGREGATOR.SC_RNA_ANALYZER.RUN_GRAPH_CLUSTERING</title>
<path fill="none" stroke="#18a5a4" d="M744.427,-719.978C751.789,-682.968 766.419,-596.824 747.839,-576 654.027,-470.856 526.651,-645.144 432.839,-540 422.187,-528.061 422.993,-516.611 432.839,-504 447.28,-485.505 497.265,-472.509 545.071,-464.016"/>
<polygon fill="#18a5a4" stroke="#18a5a4" points="545.963,-467.414 555.226,-462.271 544.778,-460.515 545.963,-467.414"/>
</g>
<!-- SC_RNA_AGGREGATOR.SC_RNA_ANALYZER.PREPROCESS_MATRIX&#45;&gt;SC_RNA_AGGREGATOR.SC_RNA_ANALYZER.MERGE_CLUSTERS -->
<g id="SC_RNA_AGGREGATOR_edge33" class="edge"><title>SC_RNA_AGGREGATOR.SC_RNA_ANALYZER.PREPROCESS_MATRIX&#45;&gt;SC_RNA_AGGREGATOR.SC_RNA_ANALYZER.MERGE_CLUSTERS</title>
<path fill="none" stroke="#8ba518" d="M747.88,-719.736C755.375,-701.655 767.792,-672.531 779.839,-648 810.327,-585.919 860.711,-569.614 838.839,-504 826.19,-466.053 816.813,-456.035 784.839,-432 762.923,-415.526 735.295,-403.629 710.385,-395.334"/>
<polygon fill="#8ba518" stroke="#8ba518" points="711.219,-391.926 700.628,-392.219 709.09,-398.595 711.219,-391.926"/>
</g>
<!-- SC_RNA_AGGREGATOR.SC_RNA_ANALYZER.PREPROCESS_MATRIX&#45;&gt;SC_RNA_AGGREGATOR.SC_RNA_ANALYZER.RUN_DIFFERENTIAL_EXPRESSION -->
<g id="SC_RNA_AGGREGATOR_edge40" class="edge"><title>SC_RNA_AGGREGATOR.SC_RNA_ANALYZER.PREPROCESS_MATRIX&#45;&gt;SC_RNA_AGGREGATOR.SC_RNA_ANALYZER.RUN_DIFFERENTIAL_EXPRESSION</title>
<path fill="none" stroke="#a0a518" d="M753.988,-720.013C761.371,-709.934 770.371,-696.684 776.839,-684 784.568,-668.846 781.143,-662.62 789.839,-648 800.783,-629.601 810.455,-630.129 821.839,-612 840.275,-582.642 845.04,-573.993 851.839,-540 854.977,-524.311 855.251,-519.632 851.839,-504 829.321,-400.826 827.912,-362.27 752.839,-288 738.191,-273.509 718.897,-262.619 700.119,-254.603"/>
<polygon fill="#a0a518" stroke="#a0a518" points="701.254,-251.287 690.671,-250.783 698.63,-257.776 701.254,-251.287"/>
</g>
<!-- SC_RNA_AGGREGATOR.SC_RNA_ANALYZER.PREPROCESS_MATRIX&#45;&gt;SC_RNA_AGGREGATOR.SC_RNA_ANALYZER.RUN_TSNE -->
<g id="SC_RNA_AGGREGATOR_edge43" class="edge"><title>SC_RNA_AGGREGATOR.SC_RNA_ANALYZER.PREPROCESS_MATRIX&#45;&gt;SC_RNA_AGGREGATOR.SC_RNA_ANALYZER.RUN_TSNE</title>
<path fill="none" stroke="#8d18a5" d="M756.954,-720.018C766.624,-709.718 779.092,-696.242 789.839,-684 803.58,-668.348 804.74,-662.345 819.839,-648 839.172,-629.633 851.144,-632.794 867.839,-612 885.419,-590.104 915.166,-517.247 930.703,-477.472"/>
<polygon fill="#8d18a5" stroke="#8d18a5" points="933.976,-478.712 934.331,-468.124 927.45,-476.18 933.976,-478.712"/>
</g>
<!-- SC_RNA_AGGREGATOR.SC_RNA_ANALYZER.PREPROCESS_MATRIX&#45;&gt;SC_RNA_AGGREGATOR.SC_RNA_ANALYZER.RUN_UMAP -->
<g id="SC_RNA_AGGREGATOR_edge46" class="edge"><title>SC_RNA_AGGREGATOR.SC_RNA_ANALYZER.PREPROCESS_MATRIX&#45;&gt;SC_RNA_AGGREGATOR.SC_RNA_ANALYZER.RUN_UMAP</title>
<path fill="none" stroke="#1883a5" d="M764.056,-720.225C777.699,-710.109 795.105,-696.751 809.839,-684 844.538,-653.973 853.639,-646.549 883.839,-612 903.495,-589.513 940.792,-522.997 963.839,-504 982.488,-488.629 1006.34,-476.491 1027.15,-467.731"/>
<polygon fill="#1883a5" stroke="#1883a5" points="1028.52,-470.951 1036.47,-463.944 1025.89,-464.466 1028.52,-470.951"/>
</g>
<!-- SC_RNA_AGGREGATOR.SC_RNA_ANALYZER.PREPROCESS_MATRIX&#45;&gt;SC_RNA_AGGREGATOR.SC_RNA_ANALYZER.SUMMARIZE_ANALYSIS -->
<g id="SC_RNA_AGGREGATOR_edge51" class="edge"><title>SC_RNA_AGGREGATOR.SC_RNA_ANALYZER.PREPROCESS_MATRIX&#45;&gt;SC_RNA_AGGREGATOR.SC_RNA_ANALYZER.SUMMARIZE_ANALYSIS</title>
<path fill="none" stroke="#58a518" d="M772.749,-720.687C791.514,-710.731 815.477,-697.377 835.839,-684 857.83,-669.552 861.558,-663.474 882.839,-648 996.808,-565.132 1071.46,-588.899 1143.84,-468 1164.29,-433.848 1153.84,-418.804 1153.84,-379 1153.84,-379 1153.84,-379 1153.84,-305 1153.84,-207.872 1033.74,-176.082 936.72,-166.248"/>
<polygon fill="#58a518" stroke="#58a518" points="936.798,-162.739 926.513,-165.284 936.14,-169.708 936.798,-162.739"/>
</g>
<!-- SC_RNA_AGGREGATOR.SC_RNA_ANALYZER.RUN_MULTIGENOME_ANALYSIS&#45;&gt;SC_RNA_AGGREGATOR.SC_RNA_ANALYZER.SUMMARIZE_ANALYSIS -->
<g id="SC_RNA_AGGREGATOR_edge53" class="edge"><title>SC_RNA_AGGREGATOR.SC_RNA_ANALYZER.RUN_MULTIGENOME_ANALYSIS&#45;&gt;SC_RNA_AGGREGATOR.SC_RNA_ANALYZER.SUMMARIZE_ANALYSIS</title>
<path fill="none" stroke="#58a518" d="M1081.06,-648.232C1117.15,-625.09 1173.84,-579.716 1173.84,-523 1173.84,-523 1173.84,-523 1173.84,-305 1173.84,-264.887 1187.4,-244.17 1158.84,-216 1127.69,-185.269 1021.47,-172.349 935.39,-166.921"/>
<polygon fill="#58a518" stroke="#58a518" points="935.459,-163.419 925.267,-166.311 935.038,-170.406 935.459,-163.419"/>
</g>
<!-- SC_RNA_AGGREGATOR.SC_RNA_ANALYZER.RUN_PCA&#45;&gt;SC_RNA_AGGREGATOR.SC_RNA_ANALYZER.CHOOSE_DIMENSION_REDUCTION_OUTPUT -->
<g id="SC_RNA_AGGREGATOR_edge24" class="edge"><title>SC_RNA_AGGREGATOR.SC_RNA_ANALYZER.RUN_PCA&#45;&gt;SC_RNA_AGGREGATOR.SC_RNA_ANALYZER.CHOOSE_DIMENSION_REDUCTION_OUTPUT</title>
<path fill="none" stroke="#18a583" d="M456.056,-649C438.376,-630.186 415.338,-598.657 432.839,-576 445.156,-560.055 484.738,-547.993 525.721,-539.436"/>
<polygon fill="#18a583" stroke="#18a583" points="526.48,-542.853 535.591,-537.445 525.096,-535.992 526.48,-542.853"/>
</g>
<!-- SC_RNA_AGGREGATOR.SC_RNA_ANALYZER.RUN_FBPCA&#45;&gt;SC_RNA_AGGREGATOR.SC_RNA_ANALYZER.CORRECT_CHEMISTRY_BATCH -->
<g id="SC_RNA_AGGREGATOR_edge20" class="edge"><title>SC_RNA_AGGREGATOR.SC_RNA_ANALYZER.RUN_FBPCA&#45;&gt;SC_RNA_AGGREGATOR.SC_RNA_ANALYZER.CORRECT_CHEMISTRY_BATCH</title>
<path fill="none" stroke="#a51856" d="M629.383,-648.411C621.896,-639.82 612.607,-629.159 604.3,-619.627"/>
<polygon fill="#a51856" stroke="#a51856" points="606.824,-617.196 597.615,-611.956 601.546,-621.795 606.824,-617.196"/>
</g>
<!-- SC_RNA_AGGREGATOR.SC_RNA_ANALYZER.CORRECT_CHEMISTRY_BATCH&#45;&gt;SC_RNA_AGGREGATOR.SC_RNA_ANALYZER.CHOOSE_DIMENSION_REDUCTION_OUTPUT -->
<g id="SC_RNA_AGGREGATOR_edge23" class="edge"><title>SC_RNA_AGGREGATOR.SC_RNA_ANALYZER.CORRECT_CHEMISTRY_BATCH&#45;&gt;SC_RNA_AGGREGATOR.SC_RNA_ANALYZER.CHOOSE_DIMENSION_REDUCTION_OUTPUT</title>
<path fill="none" stroke="#18a583" d="M595.669,-576.055C601.955,-567.753 609.654,-557.584 616.624,-548.378"/>
<polygon fill="#18a583" stroke="#18a583" points="619.513,-550.361 622.759,-540.275 613.932,-546.135 619.513,-550.361"/>
</g>
<!-- SC_RNA_AGGREGATOR.SC_RNA_ANALYZER.CORRECT_CHEMISTRY_BATCH&#45;&gt;SC_RNA_AGGREGATOR.SC_RNA_ANALYZER.SUMMARIZE_ANALYSIS -->
<g id="SC_RNA_AGGREGATOR_edge50" class="edge"><title>SC_RNA_AGGREGATOR.SC_RNA_ANALYZER.CORRECT_CHEMISTRY_BATCH&#45;&gt;SC_RNA_AGGREGATOR.SC_RNA_ANALYZER.SUMMARIZE_ANALYSIS</title>
<path fill="none" stroke="#58a518" d="M697.084,-583.394C756.499,-575.776 820.499,-562.526 838.839,-540 884.324,-484.133 837.332,-287.413 827.839,-216 826.703,-207.452 824.848,-198.251 822.933,-189.953"/>
<polygon fill="#58a518" stroke="#58a518" points="826.287,-188.934 820.524,-180.043 819.485,-190.587 826.287,-188.934"/>
</g>
<!-- SC_RNA_AGGREGATOR.SC_RNA_ANALYZER.CHOOSE_DIMENSION_REDUCTION_OUTPUT&#45;&gt;SC_RNA_AGGREGATOR.SC_RNA_ANALYZER.RUN_KMEANS -->
<g id="SC_RNA_AGGREGATOR_edge26" class="edge"><title>SC_RNA_AGGREGATOR.SC_RNA_ANALYZER.CHOOSE_DIMENSION_REDUCTION_OUTPUT&#45;&gt;SC_RNA_AGGREGATOR.SC_RNA_ANALYZER.RUN_KMEANS</title>
<path fill="none" stroke="#a53f18" d="M587.988,-504.5C556.332,-493.584 514.905,-479.299 482.823,-468.236"/>
<polygon fill="#a53f18" stroke="#a53f18" points="483.782,-464.864 473.187,-464.913 481.5,-471.482 483.782,-464.864"/>
</g>
<!-- SC_RNA_AGGREGATOR.SC_RNA_ANALYZER.CHOOSE_DIMENSION_REDUCTION_OUTPUT&#45;&gt;SC_RNA_AGGREGATOR.SC_RNA_ANALYZER.RUN_GRAPH_CLUSTERING -->
<g id="SC_RNA_AGGREGATOR_edge29" class="edge"><title>SC_RNA_AGGREGATOR.SC_RNA_ANALYZER.CHOOSE_DIMENSION_REDUCTION_OUTPUT&#45;&gt;SC_RNA_AGGREGATOR.SC_RNA_ANALYZER.RUN_GRAPH_CLUSTERING</title>
<path fill="none" stroke="#18a5a4" d="M638.064,-503.697C639.056,-495.983 640.247,-486.712 641.353,-478.112"/>
<polygon fill="#18a5a4" stroke="#18a5a4" points="644.836,-478.469 642.64,-468.104 637.893,-477.576 644.836,-478.469"/>
</g>
<!-- SC_RNA_AGGREGATOR.SC_RNA_ANALYZER.CHOOSE_DIMENSION_REDUCTION_OUTPUT&#45;&gt;SC_RNA_AGGREGATOR.SC_RNA_ANALYZER.MERGE_CLUSTERS -->
<g id="SC_RNA_AGGREGATOR_edge32" class="edge"><title>SC_RNA_AGGREGATOR.SC_RNA_ANALYZER.CHOOSE_DIMENSION_REDUCTION_OUTPUT&#45;&gt;SC_RNA_AGGREGATOR.SC_RNA_ANALYZER.MERGE_CLUSTERS</title>
<path fill="none" stroke="#8ba518" d="M723.345,-505.84C743.864,-497.985 763.359,-486.07 775.839,-468 784.932,-454.835 784.783,-445.267 775.839,-432 763.233,-413.301 742.789,-401.197 721.763,-393.362"/>
<polygon fill="#8ba518" stroke="#8ba518" points="722.681,-389.978 712.087,-390.055 720.417,-396.601 722.681,-389.978"/>
</g>
<!-- SC_RNA_AGGREGATOR.SC_RNA_ANALYZER.CHOOSE_DIMENSION_REDUCTION_OUTPUT&#45;&gt;SC_RNA_AGGREGATOR.SC_RNA_ANALYZER.RUN_TSNE -->
<g id="SC_RNA_AGGREGATOR_edge42" class="edge"><title>SC_RNA_AGGREGATOR.SC_RNA_ANALYZER.CHOOSE_DIMENSION_REDUCTION_OUTPUT&#45;&gt;SC_RNA_AGGREGATOR.SC_RNA_ANALYZER.RUN_TSNE</title>
<path fill="none" stroke="#8d18a5" d="M705.048,-505.116C760.082,-492.485 835.992,-475.063 886.66,-463.434"/>
<polygon fill="#8d18a5" stroke="#8d18a5" points="887.48,-466.837 896.444,-461.189 885.914,-460.015 887.48,-466.837"/>
</g>
<!-- SC_RNA_AGGREGATOR.SC_RNA_ANALYZER.CHOOSE_DIMENSION_REDUCTION_OUTPUT&#45;&gt;SC_RNA_AGGREGATOR.SC_RNA_ANALYZER.RUN_UMAP -->
<g id="SC_RNA_AGGREGATOR_edge45" class="edge"><title>SC_RNA_AGGREGATOR.SC_RNA_ANALYZER.CHOOSE_DIMENSION_REDUCTION_OUTPUT&#45;&gt;SC_RNA_AGGREGATOR.SC_RNA_ANALYZER.RUN_UMAP</title>
<path fill="none" stroke="#1883a5" d="M751.331,-507.453C824.559,-498.125 921.118,-484.462 1005.84,-468 1010.86,-467.025 1016.06,-465.92 1021.25,-464.753"/>
<polygon fill="#1883a5" stroke="#1883a5" points="1022.23,-468.119 1031.18,-462.45 1020.65,-461.3 1022.23,-468.119"/>
</g>
<!-- SC_RNA_AGGREGATOR.SC_RNA_ANALYZER.CHOOSE_DIMENSION_REDUCTION_OUTPUT&#45;&gt;SC_RNA_AGGREGATOR.SC_RNA_ANALYZER.SUMMARIZE_ANALYSIS -->
<g id="SC_RNA_AGGREGATOR_edge48" class="edge"><title>SC_RNA_AGGREGATOR.SC_RNA_ANALYZER.CHOOSE_DIMENSION_REDUCTION_OUTPUT&#45;&gt;SC_RNA_AGGREGATOR.SC_RNA_ANALYZER.SUMMARIZE_ANALYSIS</title>
<path fill="none" stroke="#58a518" d="M715.279,-505.482C739.834,-497.555 765.484,-485.688 784.839,-468 816.988,-438.62 825.839,-422.551 825.839,-379 825.839,-379 825.839,-379 825.839,-305 825.839,-264.897 821.821,-218.58 818.879,-190.04"/>
<polygon fill="#58a518" stroke="#58a518" points="822.352,-189.596 817.815,-180.022 815.391,-190.336 822.352,-189.596"/>
</g>
<!-- SC_RNA_AGGREGATOR.SC_RNA_ANALYZER.RUN_KMEANS&#45;&gt;SC_RNA_AGGREGATOR.SC_RNA_ANALYZER.COMBINE_CLUSTERING -->
<g id="SC_RNA_AGGREGATOR_edge37" class="edge"><title>SC_RNA_AGGREGATOR.SC_RNA_ANALYZER.RUN_KMEANS&#45;&gt;SC_RNA_AGGREGATOR.SC_RNA_ANALYZER.COMBINE_CLUSTERING</title>
<path fill="none" stroke="#a51884" d="M452.272,-432.472C474.346,-413.991 511.734,-383.564 545.839,-360 561.662,-349.068 579.769,-337.941 595.428,-328.724"/>
<polygon fill="#a51884" stroke="#a51884" points="597.454,-331.594 604.33,-323.534 593.928,-325.547 597.454,-331.594"/>
</g>
<!-- SC_RNA_AGGREGATOR.SC_RNA_ANALYZER.RUN_GRAPH_CLUSTERING&#45;&gt;SC_RNA_AGGREGATOR.SC_RNA_ANALYZER.MERGE_CLUSTERS -->
<g id="SC_RNA_AGGREGATOR_edge34" class="edge"><title>SC_RNA_AGGREGATOR.SC_RNA_ANALYZER.RUN_GRAPH_CLUSTERING&#45;&gt;SC_RNA_AGGREGATOR.SC_RNA_ANALYZER.MERGE_CLUSTERS</title>
<path fill="none" stroke="#8ba518" d="M644.839,-431.697C644.839,-423.983 644.839,-414.712 644.839,-406.112"/>
<polygon fill="#8ba518" stroke="#8ba518" points="648.339,-406.104 644.839,-396.104 641.339,-406.104 648.339,-406.104"/>
</g>
<!-- SC_RNA_AGGREGATOR.SC_RNA_ANALYZER.MERGE_CLUSTERS&#45;&gt;SC_RNA_AGGREGATOR.SC_RNA_ANALYZER.COMBINE_CLUSTERING -->
<g id="SC_RNA_AGGREGATOR_edge36" class="edge"><title>SC_RNA_AGGREGATOR.SC_RNA_ANALYZER.MERGE_CLUSTERS&#45;&gt;SC_RNA_AGGREGATOR.SC_RNA_ANALYZER.COMBINE_CLUSTERING</title>
<path fill="none" stroke="#a51884" d="M642.12,-359.697C640.908,-351.983 639.451,-342.712 638.1,-334.112"/>
<polygon fill="#a51884" stroke="#a51884" points="641.537,-333.44 636.527,-324.104 634.622,-334.526 641.537,-333.44"/>
</g>
<!-- SC_RNA_AGGREGATOR.SC_RNA_ANALYZER.COMBINE_CLUSTERING&#45;&gt;SC_RNA_AGGREGATOR.SC_RNA_ANALYZER.RUN_DIFFERENTIAL_EXPRESSION -->
<g id="SC_RNA_AGGREGATOR_edge39" class="edge"><title>SC_RNA_AGGREGATOR.SC_RNA_ANALYZER.COMBINE_CLUSTERING&#45;&gt;SC_RNA_AGGREGATOR.SC_RNA_ANALYZER.RUN_DIFFERENTIAL_EXPRESSION</title>
<path fill="none" stroke="#a0a518" d="M633.839,-287.697C633.839,-279.983 633.839,-270.712 633.839,-262.112"/>
<polygon fill="#a0a518" stroke="#a0a518" points="637.339,-262.104 633.839,-252.104 630.339,-262.104 637.339,-262.104"/>
</g>
<!-- SC_RNA_AGGREGATOR.SC_RNA_ANALYZER.COMBINE_CLUSTERING&#45;&gt;SC_RNA_AGGREGATOR.SC_RNA_ANALYZER.SUMMARIZE_ANALYSIS -->
<g id="SC_RNA_AGGREGATOR_edge49" class="edge"><title>SC_RNA_AGGREGATOR.SC_RNA_ANALYZER.COMBINE_CLUSTERING&#45;&gt;SC_RNA_AGGREGATOR.SC_RNA_ANALYZER.SUMMARIZE_ANALYSIS</title>
<path fill="none" stroke="#58a518" d="M718.818,-294.336C746.859,-286.773 775.933,-273.896 795.839,-252 810.94,-235.39 815.45,-209.887 816.467,-190.432"/>
<polygon fill="#58a518" stroke="#58a518" points="819.968,-190.425 816.718,-180.341 812.971,-190.251 819.968,-190.425"/>
</g>
<!-- SC_RNA_AGGREGATOR.SC_RNA_ANALYZER.RUN_DIFFERENTIAL_EXPRESSION&#45;&gt;SC_RNA_AGGREGATOR.SC_RNA_ANALYZER.SUMMARIZE_ANALYSIS -->
<g id="SC_RNA_AGGREGATOR_edge52" class="edge"><title>SC_RNA_AGGREGATOR.SC_RNA_ANALYZER.RUN_DIFFERENTIAL_EXPRESSION&#45;&gt;SC_RNA_AGGREGATOR.SC_RNA_ANALYZER.SUMMARIZE_ANALYSIS</title>
<path fill="none" stroke="#58a518" d="M676.51,-216.588C703.014,-206.394 737.222,-193.237 765.11,-182.511"/>
<polygon fill="#58a518" stroke="#58a518" points="766.611,-185.684 774.688,-178.827 764.098,-179.151 766.611,-185.684"/>
</g>
<!-- SC_RNA_AGGREGATOR.SC_RNA_ANALYZER.RUN_TSNE&#45;&gt;SC_RNA_AGGREGATOR.SC_RNA_ANALYZER.SUMMARIZE_ANALYSIS -->
<g id="SC_RNA_AGGREGATOR_edge54" class="edge"><title>SC_RNA_AGGREGATOR.SC_RNA_ANALYZER.RUN_TSNE&#45;&gt;SC_RNA_AGGREGATOR.SC_RNA_ANALYZER.SUMMARIZE_ANALYSIS</title>
<path fill="none" stroke="#58a518" d="M938.741,-431.994C933.171,-391.796 915.281,-288.831 870.839,-216 864.202,-205.123 854.798,-194.944 845.639,-186.471"/>
<polygon fill="#58a518" stroke="#58a518" points="847.88,-183.78 838.07,-179.778 843.243,-189.024 847.88,-183.78"/>
</g>
<!-- SC_RNA_AGGREGATOR.SC_RNA_ANALYZER.RUN_UMAP&#45;&gt;SC_RNA_AGGREGATOR.SC_RNA_ANALYZER.SUMMARIZE_ANALYSIS -->
<g id="SC_RNA_AGGREGATOR_edge55" class="edge"><title>SC_RNA_AGGREGATOR.SC_RNA_ANALYZER.RUN_UMAP&#45;&gt;SC_RNA_AGGREGATOR.SC_RNA_ANALYZER.SUMMARIZE_ANALYSIS</title>
<path fill="none" stroke="#58a518" d="M1063.25,-432.035C1035.42,-391.928 961.471,-289.143 885.839,-216 874.532,-205.065 860.968,-194.335 848.802,-185.42"/>
<polygon fill="#58a518" stroke="#58a518" points="850.811,-182.554 840.649,-179.559 846.725,-188.238 850.811,-182.554"/>
</g>
<!-- SC_RNA_AGGREGATOR.SC_RNA_ANALYZER.SUMMARIZE_ANALYSIS&#45;&gt;SC_RNA_AGGREGATOR.SUMMARIZE_AGGREGATED_REPORTS -->
<g id="SC_RNA_AGGREGATOR_edge57" class="edge"><title>SC_RNA_AGGREGATOR.SC_RNA_ANALYZER.SUMMARIZE_ANALYSIS&#45;&gt;SC_RNA_AGGREGATOR.SUMMARIZE_AGGREGATED_REPORTS</title>
<path fill="none" stroke="#18a52a" d="M750.25,-147.254C697.201,-136.136 622.18,-120.413 564.932,-108.415"/>
<polygon fill="#18a52a" stroke="#18a52a" points="565.326,-104.921 554.821,-106.296 563.89,-111.772 565.326,-104.921"/>
</g>
<!-- SC_RNA_AGGREGATOR.SC_RNA_ANALYZER.SUMMARIZE_ANALYSIS&#45;&gt;Outputs -->
<g id="SC_RNA_AGGREGATOR_edge60" class="edge"><title>SC_RNA_AGGREGATOR.SC_RNA_ANALYZER.SUMMARIZE_ANALYSIS&#45;&gt;Outputs</title>
<path fill="none" stroke="black" stroke-dasharray="5,2" d="M795.433,-144.153C764.046,-118.24 703.958,-68.6331 669.611,-40.2765"/>
<polygon fill="black" stroke="black" points="671.814,-37.557 661.874,-33.8895 667.358,-42.955 671.814,-37.557"/>
</g>
<!-- SC_RNA_AGGREGATOR.SUMMARIZE_AGGREGATED_REPORTS&#45;&gt;Outputs -->
<g id="SC_RNA_AGGREGATOR_edge62" class="edge"><title>SC_RNA_AGGREGATOR.SUMMARIZE_AGGREGATED_REPORTS&#45;&gt;Outputs</title>
<path fill="none" stroke="black" stroke-dasharray="5,2" d="M520.231,-72.411C546.448,-61.0825 580.991,-46.1566 606.894,-34.9638"/>
<polygon fill="black" stroke="black" points="608.572,-38.0516 616.364,-30.8721 605.796,-31.6258 608.572,-38.0516"/>
</g>
</g>
</svg>
